<?xml version="1.0" standalone="no"?>
<!DOCTYPE svg PUBLIC "-//W3C//DTD SVG 20010904//EN"
 "http://www.w3.org/TR/2001/REC-SVG-20010904/DTD/svg10.dtd">
<svg version="1.0" xmlns="http://www.w3.org/2000/svg"
 width="421.000000pt" height="421.000000pt" viewBox="0 0 421.000000 421.000000"
 preserveAspectRatio="xMidYMid meet">
<metadata>
Created by potrace 1.11, written by Peter Selinger 2001-2013
</metadata>
<g transform="translate(0.000000,421.000000) scale(0.100000,-0.100000)"
fill="#000000" stroke="none">
<path d="M2284 3859 c-73 -56 -171 -115 -179 -107 -2 2 -7 26 -10 53 -4 28 -9
53 -12 58 -8 13 -33 7 -71 -16 -49 -31 -171 -93 -305 -156 -60 -28 -139 -72
-175 -98 -76 -54 -176 -153 -198 -195 -8 -15 -19 -28 -25 -28 -5 0 -20 23 -31
51 l-22 52 -18 -23 c-30 -37 -108 -185 -146 -278 -33 -81 -36 -95 -38 -207 -2
-125 13 -286 40 -440 9 -49 19 -143 23 -207 6 -115 5 -118 -15 -118 -11 0 -30
-12 -41 -26 -44 -56 -37 -177 19 -346 17 -49 30 -91 30 -93 0 -1 -41 -5 -91
-7 -83 -3 -93 -5 -111 -28 -20 -24 -20 -33 -14 -220 4 -107 9 -208 11 -225 1
-16 6 -112 10 -212 l7 -183 -56 -61 c-31 -33 -72 -91 -90 -127 -34 -69 -108
-313 -110 -366 l-1 -30 80 -5 c101 -7 2539 -8 2698 -1 l119 5 -6 37 c-13 78
-78 287 -112 356 -21 43 -60 99 -96 138 l-61 64 2 88 c2 48 4 103 6 122 2 19
6 107 10 195 4 88 8 176 10 195 12 129 8 205 -13 230 -20 24 -31 27 -133 29
l-67 1 25 62 c37 92 66 242 58 305 -7 59 -36 103 -67 103 -20 0 -21 3 -14 123
3 67 12 178 20 247 7 69 14 184 15 255 2 108 -2 142 -20 200 -40 132 -230 479
-249 458 -4 -4 -10 -30 -14 -57 -3 -27 -7 -50 -9 -52 -9 -9 -52 51 -126 179
-44 75 -89 149 -100 163 l-21 27 -15 -36 c-8 -20 -15 -42 -15 -49 -1 -27 -30
27 -55 101 -14 42 -34 91 -44 110 l-18 35 -29 -44 c-16 -24 -30 -37 -31 -29
-7 58 -15 89 -22 89 -5 0 -44 -27 -87 -61z"/>
</g>
</svg>
